<svg width="89" height="48" viewBox="0 0 89 48" fill="none" xmlns="http://www.w3.org/2000/svg">
<path d="M4.31818 19.206C3.62216 19.206 3.00189 19.0852 2.45739 18.8438C1.91288 18.5975 1.48201 18.2353 1.16477 17.7571C0.852273 17.2741 0.696023 16.6728 0.696023 15.9531C0.696023 15.3471 0.807292 14.8381 1.02983 14.4261C1.25237 14.0142 1.5554 13.6828 1.93892 13.4318C2.32244 13.1809 2.75805 12.9915 3.24574 12.8636C3.73816 12.7358 4.25426 12.6458 4.79403 12.5938C5.4285 12.5275 5.93987 12.4659 6.32812 12.4091C6.71638 12.3475 6.99811 12.2576 7.1733 12.1392C7.34849 12.0208 7.43608 11.8456 7.43608 11.6136V11.571C7.43608 11.1212 7.29403 10.7732 7.00994 10.527C6.73059 10.2808 6.33286 10.1577 5.81676 10.1577C5.27225 10.1577 4.83902 10.2784 4.51705 10.5199C4.19508 10.7566 3.98201 11.0549 3.87784 11.4148L1.07955 11.1875C1.22159 10.5246 1.50095 9.9517 1.91761 9.46875C2.33428 8.98106 2.87169 8.60701 3.52983 8.34659C4.19271 8.08144 4.95975 7.94886 5.83097 7.94886C6.43703 7.94886 7.01705 8.01989 7.57102 8.16193C8.12974 8.30398 8.62453 8.52415 9.0554 8.82244C9.491 9.12074 9.83428 9.50426 10.0852 9.97301C10.3362 10.437 10.4616 10.9934 10.4616 11.642V19H7.59233V17.4872H7.5071C7.33191 17.8281 7.09754 18.1288 6.80398 18.3892C6.51042 18.6449 6.15767 18.8461 5.74574 18.9929C5.33381 19.1349 4.85795 19.206 4.31818 19.206ZM5.18466 17.1179C5.62974 17.1179 6.02273 17.0303 6.36364 16.8551C6.70455 16.6752 6.97206 16.4337 7.16619 16.1307C7.36032 15.8277 7.45739 15.4844 7.45739 15.1009V13.9432C7.36269 14.0047 7.23248 14.0616 7.06676 14.1136C6.90578 14.161 6.72349 14.206 6.51989 14.2486C6.31629 14.2865 6.11269 14.322 5.90909 14.3551C5.70549 14.3835 5.52083 14.4096 5.35511 14.4332C5 14.4853 4.68987 14.5682 4.42472 14.6818C4.15956 14.7955 3.9536 14.9493 3.80682 15.1435C3.66004 15.3329 3.58665 15.5696 3.58665 15.8537C3.58665 16.2656 3.7358 16.5805 4.03409 16.7983C4.33712 17.0114 4.72064 17.1179 5.18466 17.1179ZM21.8857 11.2017L19.1158 11.3722C19.0684 11.1354 18.9666 10.9223 18.8104 10.733C18.6541 10.5388 18.4482 10.3849 18.1925 10.2713C17.9415 10.1529 17.6409 10.0938 17.2905 10.0938C16.8217 10.0938 16.4264 10.1932 16.1044 10.392C15.7824 10.5862 15.6214 10.8466 15.6214 11.1733C15.6214 11.4337 15.7256 11.6539 15.9339 11.8338C16.1423 12.0137 16.4998 12.1581 17.0064 12.267L18.9808 12.6648C20.0414 12.8826 20.8321 13.233 21.353 13.7159C21.8738 14.1989 22.1342 14.8333 22.1342 15.6193C22.1342 16.3343 21.9235 16.9616 21.5021 17.5014C21.0855 18.0412 20.5125 18.4626 19.7834 18.7656C19.0589 19.0639 18.2232 19.2131 17.2763 19.2131C15.8321 19.2131 14.6816 18.9124 13.8246 18.3111C12.9723 17.705 12.4728 16.8812 12.326 15.8395L15.3018 15.6832C15.3918 16.1236 15.6096 16.4598 15.9553 16.6918C16.3009 16.919 16.7436 17.0327 17.2834 17.0327C17.8137 17.0327 18.2398 16.9309 18.5618 16.7273C18.8885 16.5189 19.0542 16.2514 19.0589 15.9247C19.0542 15.6501 18.9382 15.4252 18.7109 15.25C18.4837 15.0701 18.1333 14.9328 17.6598 14.8381L15.7706 14.4616C14.7053 14.2486 13.9122 13.8793 13.3913 13.3537C12.8752 12.8281 12.6172 12.1581 12.6172 11.3438C12.6172 10.643 12.8066 10.0393 13.1854 9.53267C13.5689 9.02604 14.1063 8.63542 14.7976 8.3608C15.4936 8.08617 16.308 7.94886 17.2408 7.94886C18.6186 7.94886 19.7029 8.24006 20.4936 8.82244C21.2891 9.40483 21.7531 10.1979 21.8857 11.2017ZM33.1161 11.2017L30.3462 11.3722C30.2989 11.1354 30.1971 10.9223 30.0408 10.733C29.8846 10.5388 29.6786 10.3849 29.4229 10.2713C29.172 10.1529 28.8713 10.0938 28.521 10.0938C28.0522 10.0938 27.6568 10.1932 27.3349 10.392C27.0129 10.5862 26.8519 10.8466 26.8519 11.1733C26.8519 11.4337 26.9561 11.6539 27.1644 11.8338C27.3728 12.0137 27.7302 12.1581 28.2369 12.267L30.2113 12.6648C31.2719 12.8826 32.0626 13.233 32.5835 13.7159C33.1043 14.1989 33.3647 14.8333 33.3647 15.6193C33.3647 16.3343 33.154 16.9616 32.7326 17.5014C32.3159 18.0412 31.743 18.4626 31.0138 18.7656C30.2894 19.0639 29.4537 19.2131 28.5067 19.2131C27.0626 19.2131 25.9121 18.9124 25.055 18.3111C24.2028 17.705 23.7032 16.8812 23.5565 15.8395L26.5323 15.6832C26.6223 16.1236 26.8401 16.4598 27.1857 16.6918C27.5314 16.919 27.9741 17.0327 28.5138 17.0327C29.0442 17.0327 29.4703 16.9309 29.7923 16.7273C30.119 16.5189 30.2847 16.2514 30.2894 15.9247C30.2847 15.6501 30.1687 15.4252 29.9414 15.25C29.7141 15.0701 29.3638 14.9328 28.8903 14.8381L27.0011 14.4616C25.9357 14.2486 25.1426 13.8793 24.6218 13.3537C24.1057 12.8281 23.8477 12.1581 23.8477 11.3438C23.8477 10.643 24.0371 10.0393 24.4158 9.53267C24.7994 9.02604 25.3368 8.63542 26.0281 8.3608C26.7241 8.08617 27.5385 7.94886 28.4712 7.94886C29.8491 7.94886 30.9334 8.24006 31.7241 8.82244C32.5195 9.40483 32.9835 10.1979 33.1161 11.2017ZM40.1989 19.2131C39.0956 19.2131 38.1416 18.9787 37.3366 18.5099C36.5365 18.0365 35.9186 17.3783 35.483 16.5355C35.0473 15.688 34.8295 14.7055 34.8295 13.5881C34.8295 12.4612 35.0473 11.4763 35.483 10.6335C35.9186 9.78598 36.5365 9.12784 37.3366 8.65909C38.1416 8.18561 39.0956 7.94886 40.1989 7.94886C41.3021 7.94886 42.2538 8.18561 43.054 8.65909C43.8589 9.12784 44.4792 9.78598 44.9148 10.6335C45.3504 11.4763 45.5682 12.4612 45.5682 13.5881C45.5682 14.7055 45.3504 15.688 44.9148 16.5355C44.4792 17.3783 43.8589 18.0365 43.054 18.5099C42.2538 18.9787 41.3021 19.2131 40.1989 19.2131ZM40.2131 16.8693C40.715 16.8693 41.134 16.7273 41.4702 16.4432C41.8063 16.1544 42.0597 15.7614 42.2301 15.2642C42.4053 14.767 42.4929 14.2012 42.4929 13.5668C42.4929 12.9323 42.4053 12.3665 42.2301 11.8693C42.0597 11.3722 41.8063 10.9792 41.4702 10.6903C41.134 10.4015 40.715 10.2571 40.2131 10.2571C39.7064 10.2571 39.2803 10.4015 38.9347 10.6903C38.5938 10.9792 38.3357 11.3722 38.1605 11.8693C37.9901 12.3665 37.9048 12.9323 37.9048 13.5668C37.9048 14.2012 37.9901 14.767 38.1605 15.2642C38.3357 15.7614 38.5938 16.1544 38.9347 16.4432C39.2803 16.7273 39.7064 16.8693 40.2131 16.8693ZM47.5355 19V8.09091H50.4688V9.99432H50.5824C50.7813 9.31723 51.1151 8.80587 51.5838 8.46023C52.0526 8.10985 52.5923 7.93466 53.2031 7.93466C53.3546 7.93466 53.518 7.94413 53.6932 7.96307C53.8684 7.98201 54.0223 8.00805 54.1548 8.04119V10.7259C54.0128 10.6832 53.8163 10.6454 53.5653 10.6122C53.3144 10.5791 53.0848 10.5625 52.8764 10.5625C52.4313 10.5625 52.0336 10.6596 51.6832 10.8537C51.3376 11.0431 51.063 11.3082 50.8594 11.6491C50.6605 11.9901 50.5611 12.383 50.5611 12.8281V19H47.5355ZM62.0685 8.09091V10.3636H55.4989V8.09091H62.0685ZM56.9904 5.47727H60.016V15.6477C60.016 15.9271 60.0586 16.1449 60.1438 16.3011C60.229 16.4527 60.3474 16.5592 60.4989 16.6207C60.6552 16.6823 60.8351 16.7131 61.0387 16.7131C61.1808 16.7131 61.3228 16.7012 61.4648 16.6776C61.6069 16.6491 61.7158 16.6278 61.7915 16.6136L62.2674 18.8651C62.1159 18.9124 61.9028 18.9669 61.6282 19.0284C61.3536 19.0947 61.0198 19.1349 60.6268 19.1491C59.8976 19.1776 59.2584 19.0805 58.7092 18.858C58.1647 18.6354 57.7409 18.2898 57.4379 17.821C57.1348 17.3523 56.9857 16.7604 56.9904 16.0455V5.47727ZM68.8938 19.2131C67.7717 19.2131 66.8058 18.9858 65.9961 18.5312C65.1912 18.072 64.5709 17.4233 64.1353 16.5852C63.6997 15.7424 63.4819 14.7457 63.4819 13.5952C63.4819 12.473 63.6997 11.4882 64.1353 10.6406C64.5709 9.79309 65.1841 9.13258 65.9748 8.65909C66.7702 8.18561 67.703 7.94886 68.7731 7.94886C69.4928 7.94886 70.1628 8.06487 70.783 8.29688C71.408 8.52415 71.9525 8.86742 72.4165 9.3267C72.8853 9.78598 73.2499 10.3636 73.5103 11.0597C73.7707 11.7509 73.9009 12.5606 73.9009 13.4886V14.3196H64.6893V12.4446H71.0529C71.0529 12.009 70.9582 11.6231 70.7688 11.2869C70.5794 10.9508 70.3166 10.688 69.9805 10.4986C69.649 10.3045 69.2631 10.2074 68.8228 10.2074C68.3635 10.2074 67.9563 10.3139 67.6012 10.527C67.2508 10.7353 66.9762 11.017 66.7773 11.3722C66.5785 11.7225 66.4767 12.1132 66.4719 12.544V14.3267C66.4719 14.8665 66.5714 15.3329 66.7702 15.7259C66.9738 16.1188 67.2603 16.4219 67.6296 16.6349C67.9989 16.848 68.4369 16.9545 68.9435 16.9545C69.2797 16.9545 69.5875 16.9072 69.8668 16.8125C70.1462 16.7178 70.3853 16.5758 70.5842 16.3864C70.783 16.197 70.9345 15.965 71.0387 15.6903L73.837 15.875C73.695 16.5473 73.4038 17.1345 72.9634 17.6364C72.5278 18.1335 71.9644 18.5218 71.2731 18.8011C70.5865 19.0758 69.7934 19.2131 68.8938 19.2131ZM79.8952 19.1776C79.0666 19.1776 78.3162 18.9645 77.6438 18.5384C76.9762 18.1075 76.4459 17.4754 76.0529 16.642C75.6647 15.804 75.4705 14.7765 75.4705 13.5597C75.4705 12.3097 75.6718 11.2704 76.0742 10.4418C76.4767 9.60843 77.0117 8.9858 77.6793 8.57386C78.3517 8.1572 79.0879 7.94886 79.8881 7.94886C80.4989 7.94886 81.0079 8.05303 81.4151 8.26136C81.8271 8.46496 82.1585 8.72064 82.4094 9.02841C82.6651 9.33144 82.8593 9.62973 82.9918 9.9233H83.0842V4.45455H86.1026V19H83.1197V17.2528H82.9918C82.8498 17.5559 82.6486 17.8565 82.3881 18.1548C82.1325 18.4484 81.7987 18.6922 81.3867 18.8864C80.9795 19.0805 80.4824 19.1776 79.8952 19.1776ZM80.854 16.7699C81.3417 16.7699 81.7537 16.6373 82.0898 16.3722C82.4308 16.1023 82.6912 15.7259 82.8711 15.2429C83.0558 14.7599 83.1481 14.1941 83.1481 13.5455C83.1481 12.8968 83.0581 12.3333 82.8782 11.8551C82.6983 11.3769 82.4379 11.0076 82.0969 10.7472C81.756 10.4867 81.3417 10.3565 80.854 10.3565C80.3569 10.3565 79.9379 10.4915 79.5969 10.7614C79.256 11.0312 78.998 11.4053 78.8228 11.8835C78.6476 12.3617 78.56 12.9157 78.56 13.5455C78.56 14.1799 78.6476 14.741 78.8228 15.2287C79.0027 15.7116 79.2608 16.0904 79.5969 16.3651C79.9379 16.6349 80.3569 16.7699 80.854 16.7699Z" fill="black"/>
<path d="M51.9442 35.2017L49.1744 35.3722C49.127 35.1354 49.0252 34.9223 48.869 34.733C48.7127 34.5388 48.5067 34.3849 48.2511 34.2713C48.0001 34.1529 47.6995 34.0938 47.3491 34.0938C46.8803 34.0938 46.485 34.1932 46.163 34.392C45.841 34.5862 45.68 34.8466 45.68 35.1733C45.68 35.4337 45.7842 35.6539 45.9925 35.8338C46.2009 36.0137 46.5584 36.1581 47.065 36.267L49.0394 36.6648C50.1 36.8826 50.8907 37.233 51.4116 37.7159C51.9324 38.1989 52.1928 38.8333 52.1928 39.6193C52.1928 40.3343 51.9821 40.9616 51.5607 41.5014C51.1441 42.0412 50.5711 42.4626 49.842 42.7656C49.1175 43.0639 48.2818 43.2131 47.3349 43.2131C45.8907 43.2131 44.7402 42.9124 43.8832 42.3111C43.0309 41.705 42.5314 40.8812 42.3846 39.8395L45.3604 39.6832C45.4504 40.1236 45.6682 40.4598 46.0138 40.6918C46.3595 40.919 46.8022 41.0327 47.342 41.0327C47.8723 41.0327 48.2984 40.9309 48.6204 40.7273C48.9471 40.5189 49.1128 40.2514 49.1175 39.9247C49.1128 39.6501 48.9968 39.4252 48.7695 39.25C48.5423 39.0701 48.1919 38.9328 47.7184 38.8381L45.8292 38.4616C44.7638 38.2486 43.9708 37.8793 43.4499 37.3537C42.9338 36.8281 42.6758 36.1581 42.6758 35.3438C42.6758 34.643 42.8652 34.0393 43.244 33.5327C43.6275 33.026 44.1649 32.6354 44.8562 32.3608C45.5522 32.0862 46.3666 31.9489 47.2994 31.9489C48.6772 31.9489 49.7615 32.2401 50.5522 32.8224C51.3477 33.4048 51.8117 34.1979 51.9442 35.2017ZM59.9006 32.0909V34.3636H53.331V32.0909H59.9006ZM54.8224 29.4773H57.848V39.6477C57.848 39.9271 57.8906 40.1449 57.9759 40.3011C58.0611 40.4527 58.1795 40.5592 58.331 40.6207C58.4872 40.6823 58.6671 40.7131 58.8707 40.7131C59.0128 40.7131 59.1548 40.7012 59.2969 40.6776C59.4389 40.6491 59.5478 40.6278 59.6236 40.6136L60.0994 42.8651C59.9479 42.9124 59.7348 42.9669 59.4602 43.0284C59.1856 43.0947 58.8518 43.1349 58.4588 43.1491C57.7296 43.1776 57.0904 43.0805 56.5412 42.858C55.9967 42.6354 55.5729 42.2898 55.2699 41.821C54.9669 41.3523 54.8177 40.7604 54.8224 40.0455V29.4773ZM68.8672 38.3551V32.0909H71.8928V43H68.9879V41.0185H68.8743C68.6281 41.6577 68.2185 42.1714 67.6456 42.5597C67.0774 42.9479 66.3838 43.142 65.5646 43.142C64.8355 43.142 64.1939 42.9763 63.6399 42.6449C63.0859 42.3134 62.6527 41.8423 62.3402 41.2315C62.0324 40.6207 61.8762 39.8892 61.8714 39.0369V32.0909H64.897V38.4972C64.9018 39.1411 65.0746 39.6501 65.4155 40.0241C65.7564 40.3982 66.2133 40.5852 66.7862 40.5852C67.1508 40.5852 67.4917 40.5024 67.8089 40.3366C68.1262 40.1662 68.3819 39.9152 68.576 39.5838C68.7749 39.2524 68.8719 38.8428 68.8672 38.3551ZM80.1793 32.0909V34.3636H73.4464V32.0909H80.1793ZM74.9876 43V31.3026C74.9876 30.5118 75.1415 29.8561 75.4492 29.3352C75.7617 28.8144 76.1879 28.4238 76.7276 28.1634C77.2674 27.9029 77.8806 27.7727 78.5671 27.7727C79.0311 27.7727 79.4549 27.8082 79.8384 27.8793C80.2267 27.9503 80.5155 28.0142 80.7049 28.071L80.1651 30.3438C80.0468 30.3059 79.9 30.2704 79.7248 30.2372C79.5543 30.2041 79.3791 30.1875 79.1992 30.1875C78.7541 30.1875 78.444 30.2917 78.2688 30.5C78.0936 30.7036 78.006 30.9901 78.006 31.3594V43H74.9876ZM87.8942 32.0909V34.3636H81.1612V32.0909H87.8942ZM82.7024 43V31.3026C82.7024 30.5118 82.8563 29.8561 83.1641 29.3352C83.4766 28.8144 83.9027 28.4238 84.4425 28.1634C84.9822 27.9029 85.5954 27.7727 86.282 27.7727C86.746 27.7727 87.1697 27.8082 87.5533 27.8793C87.9415 27.9503 88.2304 28.0142 88.4197 28.071L87.88 30.3438C87.7616 30.3059 87.6148 30.2704 87.4396 30.2372C87.2692 30.2041 87.094 30.1875 86.9141 30.1875C86.469 30.1875 86.1589 30.2917 85.9837 30.5C85.8085 30.7036 85.7209 30.9901 85.7209 31.3594V43H82.7024Z" fill="#60750E"/>
</svg>
