<svg width="28" height="28" viewBox="0 0 28 28" fill="none" xmlns="http://www.w3.org/2000/svg">
<rect width="28" height="28" fill="white"/>
<path d="M9.5 23.75C10.3284 23.75 11 23.0784 11 22.25C11 21.4216 10.3284 20.75 9.5 20.75C8.67157 20.75 8 21.4216 8 22.25C8 23.0784 8.67157 23.75 9.5 23.75Z" fill="black"/>
<path d="M19.25 23.75C20.0784 23.75 20.75 23.0784 20.75 22.25C20.75 21.4216 20.0784 20.75 19.25 20.75C18.4216 20.75 17.75 21.4216 17.75 22.25C17.75 23.0784 18.4216 23.75 19.25 23.75Z" fill="black"/>
<path d="M5.96469 8.75H23L20.3262 17.4416C20.2318 17.7482 20.0415 18.0165 19.7833 18.207C19.5252 18.3975 19.2127 18.5002 18.8919 18.5H9.88156C9.55556 18.5001 9.23839 18.3941 8.97806 18.1978C8.71772 18.0016 8.5284 17.7259 8.43875 17.4125L5.04781 5.54375C5.00301 5.38711 4.90842 5.24932 4.77835 5.15122C4.64828 5.05311 4.4898 5.00003 4.32687 5H2.75" stroke="black" stroke-width="2" stroke-linecap="round" stroke-linejoin="round"/>
</svg>
