<svg width="27" height="23" viewBox="0 0 27 23" fill="none" xmlns="http://www.w3.org/2000/svg">
<path d="M25.5 13H21.5C20.9696 13 20.4609 13.2107 20.0858 13.5858C19.7107 13.9609 19.5 14.4696 19.5 15V20C19.5 20.5304 19.7107 21.0391 20.0858 21.4142C20.4609 21.7893 20.9696 22 21.5 22H23.5C24.0304 22 24.5391 21.7893 24.9142 21.4142C25.2893 21.0391 25.5 20.5304 25.5 20V13ZM25.5 13C25.5 11.4241 25.1896 9.86371 24.5866 8.4078C23.9835 6.95189 23.0996 5.62902 21.9853 4.51472C20.871 3.40042 19.5481 2.5165 18.0922 1.91345C16.6363 1.31039 15.0759 1 13.5 1C11.9241 1 10.3637 1.31039 8.9078 1.91345C7.45189 2.5165 6.12902 3.40042 5.01472 4.51472C3.90042 5.62902 3.0165 6.95189 2.41345 8.4078C1.81039 9.86371 1.5 11.4241 1.5 13M1.5 13V20C1.5 20.5304 1.71071 21.0391 2.08579 21.4142C2.46086 21.7893 2.96957 22 3.5 22H5.5C6.03043 22 6.53914 21.7893 6.91421 21.4142C7.28929 21.0391 7.5 20.5304 7.5 20V15C7.5 14.4696 7.28929 13.9609 6.91421 13.5858C6.53914 13.2107 6.03043 13 5.5 13H1.5Z" stroke="white" stroke-width="1.5" stroke-linecap="round" stroke-linejoin="round"/>
</svg>
