<svg width="33" height="33" viewBox="0 0 33 33" fill="none" xmlns="http://www.w3.org/2000/svg">
<g clip-path="url(#clip0_140_121)">
<path d="M16.3667 24.1237C17.0571 24.1237 17.6167 23.564 17.6167 22.8737C17.6167 22.1833 17.0571 21.6237 16.3667 21.6237C15.6763 21.6237 15.1167 22.1833 15.1167 22.8737C15.1167 23.564 15.6763 24.1237 16.3667 24.1237Z" fill="black"/>
<path d="M16.3667 18.3737V17.3737C18.5754 17.3737 20.3667 15.8062 20.3667 13.8737C20.3667 11.9412 18.5754 10.3737 16.3667 10.3737C14.1579 10.3737 12.3667 11.9412 12.3667 13.8737V14.3737" stroke="black" stroke-width="1.5" stroke-linecap="round" stroke-linejoin="round"/>
<path d="M16.3667 28.3737C22.9941 28.3737 28.3667 23.0011 28.3667 16.3737C28.3667 9.74624 22.9941 4.37366 16.3667 4.37366C9.73928 4.37366 4.3667 9.74624 4.3667 16.3737C4.3667 23.0011 9.73928 28.3737 16.3667 28.3737Z" stroke="black" stroke-width="1.5" stroke-linecap="round" stroke-linejoin="round"/>
</g>
<defs>
<clipPath id="clip0_140_121">
<rect width="32" height="32" fill="white" transform="translate(0.366699 0.373657)"/>
</clipPath>
</defs>
</svg>
