<svg width="33" height="32" viewBox="0 0 33 32" fill="none" xmlns="http://www.w3.org/2000/svg">
<g clip-path="url(#clip0_21_636)">
<path d="M19.5 29L16.5 26L19.5 23" stroke="white" stroke-width="1.5" stroke-linecap="round" stroke-linejoin="round"/>
<path d="M24.8286 9.39893L23.7298 13.4977L19.6323 12.3989" stroke="white" stroke-width="1.5" stroke-linecap="round" stroke-linejoin="round"/>
<path d="M10.3701 17.5963L9.27008 13.5L5.17383 14.5962" stroke="white" stroke-width="1.5" stroke-linecap="round" stroke-linejoin="round"/>
<path d="M9.2699 13.5L3.7699 23C3.59445 23.3039 3.50204 23.6486 3.50195 23.9995C3.50186 24.3504 3.5941 24.6951 3.76939 24.9991C3.94468 25.3031 4.19687 25.5556 4.50062 25.7313C4.80437 25.907 5.149 25.9996 5.4999 26H11.4999" stroke="white" stroke-width="1.5" stroke-linecap="round" stroke-linejoin="round"/>
<path d="M16.5 26H27.5C27.8509 25.9996 28.1955 25.907 28.4993 25.7313C28.803 25.5556 29.0552 25.3031 29.2305 24.9991C29.4058 24.6951 29.498 24.3504 29.4979 23.9995C29.4979 23.6486 29.4054 23.3039 29.23 23L26.3375 18" stroke="white" stroke-width="1.5" stroke-linecap="round" stroke-linejoin="round"/>
<path d="M23.73 13.5001L18.23 4.00008C18.0544 3.69642 17.8019 3.44429 17.4981 3.26901C17.1942 3.09373 16.8496 3.00146 16.4987 3.00146C16.1479 3.00146 15.8033 3.09373 15.4994 3.26901C15.1956 3.44429 14.9431 3.69642 14.7675 4.00008L11.875 9.00008" stroke="white" stroke-width="1.5" stroke-linecap="round" stroke-linejoin="round"/>
</g>
<defs>
<clipPath id="clip0_21_636">
<rect width="32" height="32" fill="white" transform="translate(0.5)"/>
</clipPath>
</defs>
</svg>
