<svg width="33" height="33" viewBox="0 0 33 33" fill="none" xmlns="http://www.w3.org/2000/svg">
<g clip-path="url(#clip0_93_141)">
<path d="M17.5128 4.34335L20.4165 11.2634C20.4868 11.4313 20.6016 11.5769 20.7485 11.6844C20.8955 11.7919 21.0689 11.8572 21.2503 11.8734L28.6828 12.5159C28.88 12.5317 29.0681 12.6057 29.2232 12.7285C29.3783 12.8512 29.4936 13.0173 29.5543 13.2056C29.6151 13.3938 29.6186 13.5959 29.5645 13.7862C29.5104 13.9765 29.401 14.1465 29.2503 14.2746L23.6115 19.1934C23.4745 19.3137 23.3726 19.469 23.3167 19.6427C23.2608 19.8163 23.2529 20.0019 23.294 20.1796L24.984 27.4971C25.0287 27.6882 25.0161 27.8883 24.9479 28.0723C24.8797 28.2563 24.7588 28.4162 24.6003 28.532C24.4419 28.6478 24.2528 28.7144 24.0568 28.7236C23.8607 28.7327 23.6663 28.6839 23.4978 28.5834L17.1103 24.7084C16.9551 24.614 16.7769 24.5641 16.5953 24.5641C16.4136 24.5641 16.2355 24.614 16.0803 24.7084L9.69277 28.5834C9.52424 28.6839 9.32983 28.7327 9.13377 28.7236C8.93771 28.7144 8.74868 28.6478 8.59022 28.532C8.43176 28.4162 8.31089 28.2563 8.24266 28.0723C8.17443 27.8883 8.16186 27.6882 8.20652 27.4971L9.89652 20.1796C9.9376 20.0019 9.92977 19.8163 9.87387 19.6427C9.81797 19.469 9.71608 19.3137 9.57902 19.1934L3.94027 14.2746C3.78952 14.1465 3.68017 13.9765 3.62604 13.7862C3.57191 13.5959 3.57545 13.3938 3.63621 13.2056C3.69696 13.0173 3.8122 12.8512 3.96735 12.7285C4.12249 12.6057 4.31056 12.5317 4.50777 12.5159L11.9403 11.8734C12.1216 11.8572 12.2951 11.7919 12.442 11.6844C12.5889 11.5769 12.7037 11.4313 12.774 11.2634L15.6778 4.34335C15.7553 4.16444 15.8835 4.01211 16.0465 3.90511C16.2095 3.7981 16.4003 3.74109 16.5953 3.74109C16.7903 3.74109 16.981 3.7981 17.144 3.90511C17.307 4.01211 17.4352 4.16444 17.5128 4.34335Z" stroke="black" stroke-linecap="round" stroke-linejoin="round"/>
</g>
<defs>
<clipPath id="clip0_93_141">
<rect width="32" height="32" fill="white" transform="translate(0.595703 0.730835)"/>
</clipPath>
</defs>
</svg>
